<mxfile host="app.diagrams.net" agent="Mozilla/5.0 (Windows NT 10.0; Win64; x64) AppleWebKit/537.36 (KHTML, like Gecko) Chrome/133.0.0.0 Safari/537.36" version="26.0.16">
  <diagram name="Страница — 1" id="U1K4-jgYeW-GaoOsZ3eL">
    <mxGraphModel dx="1061" dy="1013" grid="0" gridSize="10" guides="1" tooltips="1" connect="1" arrows="1" fold="1" page="0" pageScale="1" pageWidth="827" pageHeight="1169" math="0" shadow="0">
      <root>
        <mxCell id="0" />
        <mxCell id="1" parent="0" />
        <mxCell id="JRhd8pZYK3iryfvkHSRz-12" style="edgeStyle=none;curved=1;rounded=0;orthogonalLoop=1;jettySize=auto;html=1;exitX=0.5;exitY=1;exitDx=0;exitDy=0;entryX=0.5;entryY=0;entryDx=0;entryDy=0;fontSize=12;startSize=8;endSize=8;" edge="1" parent="1" source="JRhd8pZYK3iryfvkHSRz-1" target="JRhd8pZYK3iryfvkHSRz-2">
          <mxGeometry relative="1" as="geometry" />
        </mxCell>
        <mxCell id="JRhd8pZYK3iryfvkHSRz-1" value="&lt;font style=&quot;font-size: 17px;&quot;&gt;Начало&lt;/font&gt;" style="ellipse;whiteSpace=wrap;html=1;" vertex="1" parent="1">
          <mxGeometry x="144.13" y="-42" width="155" height="52" as="geometry" />
        </mxCell>
        <mxCell id="JRhd8pZYK3iryfvkHSRz-13" style="edgeStyle=none;curved=1;rounded=0;orthogonalLoop=1;jettySize=auto;html=1;exitX=0.5;exitY=1;exitDx=0;exitDy=0;entryX=0.5;entryY=0;entryDx=0;entryDy=0;fontSize=12;startSize=8;endSize=8;" edge="1" parent="1" source="JRhd8pZYK3iryfvkHSRz-2" target="JRhd8pZYK3iryfvkHSRz-4">
          <mxGeometry relative="1" as="geometry" />
        </mxCell>
        <mxCell id="JRhd8pZYK3iryfvkHSRz-2" value="&lt;font style=&quot;font-size: 14px;&quot;&gt;Ввод x, x&lt;sub style=&quot;&quot;&gt;i&lt;/sub&gt;&amp;nbsp;,y&lt;sub style=&quot;&quot;&gt;i&lt;/sub&gt;&amp;nbsp;;&lt;sub style=&quot;&quot;&gt;&amp;nbsp;&lt;/sub&gt;&lt;/font&gt;&lt;div&gt;&lt;font style=&quot;font-size: 14px;&quot;&gt;i= 0, 1, ... , n&lt;/font&gt;&lt;/div&gt;" style="shape=parallelogram;perimeter=parallelogramPerimeter;whiteSpace=wrap;html=1;fixedSize=1;" vertex="1" parent="1">
          <mxGeometry x="120" y="27" width="203" height="43" as="geometry" />
        </mxCell>
        <mxCell id="JRhd8pZYK3iryfvkHSRz-14" style="edgeStyle=none;curved=1;rounded=0;orthogonalLoop=1;jettySize=auto;html=1;exitX=0.5;exitY=1;exitDx=0;exitDy=0;entryX=0.5;entryY=0;entryDx=0;entryDy=0;fontSize=12;startSize=8;endSize=8;" edge="1" parent="1" source="JRhd8pZYK3iryfvkHSRz-4" target="JRhd8pZYK3iryfvkHSRz-5">
          <mxGeometry relative="1" as="geometry" />
        </mxCell>
        <mxCell id="JRhd8pZYK3iryfvkHSRz-4" value="&lt;font style=&quot;font-size: 15px;&quot;&gt;i = 0&lt;/font&gt;" style="rounded=0;whiteSpace=wrap;html=1;" vertex="1" parent="1">
          <mxGeometry x="172.5" y="94" width="98" height="46" as="geometry" />
        </mxCell>
        <mxCell id="JRhd8pZYK3iryfvkHSRz-15" style="edgeStyle=none;curved=1;rounded=0;orthogonalLoop=1;jettySize=auto;html=1;exitX=0.5;exitY=1;exitDx=0;exitDy=0;entryX=0.5;entryY=0;entryDx=0;entryDy=0;fontSize=12;startSize=8;endSize=8;" edge="1" parent="1" source="JRhd8pZYK3iryfvkHSRz-5" target="JRhd8pZYK3iryfvkHSRz-6">
          <mxGeometry relative="1" as="geometry" />
        </mxCell>
        <mxCell id="JRhd8pZYK3iryfvkHSRz-5" value="&lt;font style=&quot;font-size: 15px;&quot;&gt;i = i + 1&lt;/font&gt;" style="rounded=0;whiteSpace=wrap;html=1;" vertex="1" parent="1">
          <mxGeometry x="172.5" y="162" width="98.25" height="46" as="geometry" />
        </mxCell>
        <mxCell id="JRhd8pZYK3iryfvkHSRz-16" style="edgeStyle=none;curved=1;rounded=0;orthogonalLoop=1;jettySize=auto;html=1;exitX=0.5;exitY=1;exitDx=0;exitDy=0;entryX=0.5;entryY=0;entryDx=0;entryDy=0;fontSize=12;startSize=8;endSize=8;" edge="1" parent="1" source="JRhd8pZYK3iryfvkHSRz-6" target="JRhd8pZYK3iryfvkHSRz-7">
          <mxGeometry relative="1" as="geometry" />
        </mxCell>
        <mxCell id="JRhd8pZYK3iryfvkHSRz-20" style="edgeStyle=none;curved=1;rounded=0;orthogonalLoop=1;jettySize=auto;html=1;exitX=1;exitY=0.5;exitDx=0;exitDy=0;entryX=1;entryY=0.5;entryDx=0;entryDy=0;fontSize=12;startSize=8;endSize=8;" edge="1" parent="1" source="JRhd8pZYK3iryfvkHSRz-6" target="JRhd8pZYK3iryfvkHSRz-5">
          <mxGeometry relative="1" as="geometry">
            <Array as="points">
              <mxPoint x="335" y="220" />
            </Array>
          </mxGeometry>
        </mxCell>
        <mxCell id="JRhd8pZYK3iryfvkHSRz-6" value="&lt;font style=&quot;font-size: 15px;&quot;&gt;x &amp;lt; x&lt;sub style=&quot;&quot;&gt;i&lt;/sub&gt;&lt;/font&gt;" style="rhombus;whiteSpace=wrap;html=1;" vertex="1" parent="1">
          <mxGeometry x="162.63" y="234" width="118" height="80" as="geometry" />
        </mxCell>
        <mxCell id="JRhd8pZYK3iryfvkHSRz-17" style="edgeStyle=none;curved=1;rounded=0;orthogonalLoop=1;jettySize=auto;html=1;exitX=0.5;exitY=1;exitDx=0;exitDy=0;fontSize=12;startSize=8;endSize=8;" edge="1" parent="1" source="JRhd8pZYK3iryfvkHSRz-7" target="JRhd8pZYK3iryfvkHSRz-10">
          <mxGeometry relative="1" as="geometry" />
        </mxCell>
        <mxCell id="JRhd8pZYK3iryfvkHSRz-7" value="&lt;font style=&quot;font-size: 15px;&quot;&gt;a&lt;sub style=&quot;&quot;&gt;i&lt;/sub&gt; = (y&lt;sub style=&quot;&quot;&gt;i&lt;/sub&gt; -y&lt;sub style=&quot;&quot;&gt;i-1&lt;/sub&gt;)/(x&lt;sub style=&quot;&quot;&gt;i&lt;/sub&gt;&amp;nbsp;- x&lt;sub style=&quot;&quot;&gt;i-1&lt;/sub&gt;);&lt;/font&gt;&lt;div&gt;&lt;font style=&quot;font-size: 15px;&quot;&gt;b = y&lt;sub&gt;i-1&lt;/sub&gt;-ax&lt;sub&gt;i-1&lt;/sub&gt;;&lt;/font&gt;&lt;/div&gt;&lt;div&gt;&lt;font style=&quot;font-size: 15px;&quot;&gt;y = ax+ b&lt;/font&gt;&lt;/div&gt;" style="rounded=0;whiteSpace=wrap;html=1;" vertex="1" parent="1">
          <mxGeometry x="136.63" y="338" width="170" height="89" as="geometry" />
        </mxCell>
        <mxCell id="JRhd8pZYK3iryfvkHSRz-18" style="edgeStyle=none;curved=1;rounded=0;orthogonalLoop=1;jettySize=auto;html=1;exitX=0.5;exitY=1;exitDx=0;exitDy=0;entryX=0.5;entryY=0;entryDx=0;entryDy=0;fontSize=12;startSize=8;endSize=8;" edge="1" parent="1" source="JRhd8pZYK3iryfvkHSRz-10" target="JRhd8pZYK3iryfvkHSRz-11">
          <mxGeometry relative="1" as="geometry" />
        </mxCell>
        <mxCell id="JRhd8pZYK3iryfvkHSRz-10" value="&lt;font style=&quot;font-size: 15px;&quot;&gt;Вывод y&lt;/font&gt;" style="rounded=0;whiteSpace=wrap;html=1;" vertex="1" parent="1">
          <mxGeometry x="170.32" y="451" width="102.37" height="52" as="geometry" />
        </mxCell>
        <mxCell id="JRhd8pZYK3iryfvkHSRz-11" value="&lt;font style=&quot;font-size: 16px;&quot;&gt;Конец&lt;/font&gt;" style="ellipse;whiteSpace=wrap;html=1;" vertex="1" parent="1">
          <mxGeometry x="142.5" y="530" width="158" height="56" as="geometry" />
        </mxCell>
        <mxCell id="JRhd8pZYK3iryfvkHSRz-19" value="Да" style="text;html=1;align=center;verticalAlign=middle;whiteSpace=wrap;rounded=0;" vertex="1" parent="1">
          <mxGeometry x="210.5" y="305" width="60" height="30" as="geometry" />
        </mxCell>
        <mxCell id="JRhd8pZYK3iryfvkHSRz-21" value="Нет" style="text;html=1;align=center;verticalAlign=middle;whiteSpace=wrap;rounded=0;" vertex="1" parent="1">
          <mxGeometry x="306.63" y="212" width="60" height="30" as="geometry" />
        </mxCell>
      </root>
    </mxGraphModel>
  </diagram>
</mxfile>
